<svg xmlns="http://www.w3.org/2000/svg" viewBox="0 0 64 64" width="48" height="48">
  <!-- Main branch -->
  <path d="M32 60 C32 56 31 44 32 36 C33 28 30 20 28 12"
        fill="none" stroke="#6B4226" stroke-width="2" stroke-linecap="round"/>
  <!-- Side branch right -->
  <path d="M32 34 C35 30 40 27 44 24"
        fill="none" stroke="#6B4226" stroke-width="1.6" stroke-linecap="round"/>
  <!-- Side branch left -->
  <path d="M31 26 C28 23 24 22 21 20"
        fill="none" stroke="#6B4226" stroke-width="1.4" stroke-linecap="round"/>
  <!-- Thorns -->
  <path d="M33 38 L36 35" fill="none" stroke="#6B4226" stroke-width="1" stroke-linecap="round"/>
  <path d="M30 30 L27 27" fill="none" stroke="#6B4226" stroke-width="1" stroke-linecap="round"/>
  <!-- Hawthorn berry cluster (top) - small, round, bright red with calyx dots -->
  <circle cx="27" cy="10" r="3.2" fill="#CC3333"/>
  <circle cx="22" cy="12" r="3" fill="#BB2222"/>
  <circle cx="30" cy="7" r="2.8" fill="#CC3333"/>
  <circle cx="25" cy="6" r="2.5" fill="#DD4444"/>
  <!-- Calyx marks (the little star/dot at bottom of each haw) -->
  <circle cx="27" cy="12.5" r="0.8" fill="#6B4226"/>
  <circle cx="22" cy="14.3" r="0.7" fill="#6B4226"/>
  <circle cx="30" cy="9.2" r="0.7" fill="#6B4226"/>
  <circle cx="25" cy="8" r="0.6" fill="#6B4226"/>
  <!-- Berry cluster (right branch) -->
  <circle cx="45" cy="22" r="2.8" fill="#CC3333"/>
  <circle cx="42" cy="20" r="2.5" fill="#DD4444"/>
  <circle cx="45" cy="25.2" r="0.7" fill="#6B4226"/>
  <circle cx="42" cy="22.5" r="0.6" fill="#6B4226"/>
  <!-- Berry cluster (left branch) -->
  <circle cx="20" cy="18" r="2.5" fill="#BB2222"/>
  <circle cx="18" cy="21" r="2.8" fill="#CC3333"/>
  <circle cx="20" cy="20.5" r="0.6" fill="#6B4226"/>
  <circle cx="18" cy="23.5" r="0.7" fill="#6B4226"/>
  <!-- Lobed hawthorn leaves -->
  <path d="M36 26 C38 23 41 23 42 25 C43 23 41 21 38 22 Z" fill="#3D6B45"/>
  <path d="M24 16 C22 14 20 14 19 16 C18 14 20 12 23 13 Z" fill="#3D6B45"/>
  <path d="M34 42 C36 40 38 40 39 42 C40 40 38 38 35 39 Z" fill="#4A7C59"/>
</svg>
